<?xml version="1.0" encoding="iso-8859-1"?>
<!-- Generator: Adobe Illustrator 17.0.0, SVG Export Plug-In . SVG Version: 6.00 Build 0)  -->
<!DOCTYPE svg PUBLIC "-//W3C//DTD SVG 1.1//EN" "http://www.w3.org/Graphics/SVG/1.1/DTD/svg11.dtd">
<svg version="1.1" id="Capa_1" xmlns="http://www.w3.org/2000/svg" xmlns:xlink="http://www.w3.org/1999/xlink" x="0px" y="0px"
	 width="64px" height="64px" viewBox="0 0 64 64" style="enable-background:new 0 0 64 64;" xml:space="preserve">
<g>
	<path d="M15.776,55.745c0,0,0.61,0.171,1.363,0.382s2.289,0.484,3.415,0.704c3.03,0.591,6.137,1.824,9.945,5.374
		c0.839,0.782,2.118,0.784,2.959,0.005c3.839-3.554,6.953-4.788,9.986-5.379c1.126-0.219,2.662-0.493,3.415-0.703l1.363-0.382
		c3.485-1.292,7.259-2.949,7.349-7.851V7.842c0-1.147-0.723-1.485-1.71-0.9c-6.297,3.736-14.551,2.544-19.613-3.246
		c-0.451-0.516-0.861-1.054-1.232-1.61c-0.622-0.932-1.416-0.932-2.038,0c-0.371,0.556-0.781,1.094-1.232,1.61
		c-5.061,5.791-13.316,6.982-19.612,3.246c-0.986-0.585-1.71-0.247-1.71,0.9v40.052C8.518,52.795,12.292,54.453,15.776,55.745z
		 M12.454,29.574c0-1.147,0.93-2.076,2.076-2.076H49.47c1.147,0,2.076,0.93,2.076,2.076v16.544
		c-0.075,4.144-3.204,5.545-6.094,6.637l-1.13,0.323c-0.624,0.178-2.058,0.422-3.178,0.667c-2.341,0.513-4.761,0.511-7.687,3.206
		c-0.844,0.777-2.107,0.773-2.948-0.006c-2.902-2.69-5.315-2.687-7.653-3.2c-1.12-0.246-2.554-0.489-3.178-0.667
		c-0.624-0.178-1.13-0.323-1.13-0.323c-2.89-1.092-6.019-2.493-6.094-6.637V29.574z"/>
</g>
</svg>
