<?xml version="1.0" encoding="iso-8859-1"?>
<!-- Generator: Adobe Illustrator 18.0.0, SVG Export Plug-In . SVG Version: 6.00 Build 0)  -->
<!DOCTYPE svg PUBLIC "-//W3C//DTD SVG 1.1//EN" "http://www.w3.org/Graphics/SVG/1.1/DTD/svg11.dtd">
<svg version="1.1" id="Capa_1" xmlns="http://www.w3.org/2000/svg" xmlns:xlink="http://www.w3.org/1999/xlink" x="0px" y="0px"
	 viewBox="0 0 85.921 85.546" style="enable-background:new 0 0 85.921 85.546;" xml:space="preserve">
<g>
	<path d="M37.828,83.39c1.453,1.453,3.141,2.156,5.109,2.156c2.016,0,3.679-0.726,5.063-2.156c1.382-1.429,2.109-3.094,2.109-5.062
		h-14.39C35.719,80.296,36.422,81.983,37.828,83.39z"/>
	<path d="M85.452,71.718c-3.357-4.949-5.88-10.259-7.593-15.844c-1.709-5.571-3.231-13.641-4.594-24.187
		c-0.793-6.141-3.307-11.322-6.094-14.672c-1.385-1.666-2.964-3.173-4.781-4.5c-3.573-2.61-6.469-3.844-9.844-4.828
		c-0.468-2.203-1.602-4.02-3.421-5.484C47.334,0.761,45.281,0,42.937,0c-2.297,0-4.359,0.75-6.14,2.203
		c-1.782,1.453-2.907,3.281-3.375,5.484c-3.375,0.984-6.287,2.196-9.891,4.828c-1.786,1.305-3.376,2.811-4.781,4.5
		c-2.767,3.327-5.253,8.531-6.047,14.672c-1.362,10.546-2.927,18.602-4.64,24.187c-1.709,5.571-4.21,10.881-7.547,15.844
		C0.197,72.193,0,72.655,0,73.171c0,0.422,0.089,0.8,0.328,1.219c0.511,0.894,1.266,1.359,2.297,1.359h80.718
		c1.031,0,1.781-0.469,2.297-1.359c0.187-0.422,0.281-0.844,0.281-1.266C85.921,72.608,85.752,72.16,85.452,71.718z M7.313,70.546
		c2.812-4.828,4.946-10.13,6.422-15.797c1.478-5.677,2.82-13.177,4.124-22.406c1.134-8.021,4.776-13.061,9.328-16.078
		c3.23-2.14,5.994-3.26,9.235-3.984c1.166-0.261,1.922-1.312,1.922-2.484V9.703c0-2.488,2.109-4.5,4.593-4.5
		c2.578,0,4.594,2.016,4.594,4.5v0.094c0,1.172,0.833,2.195,2.016,2.484c3.225,0.789,6.034,1.799,9.187,3.984
		c1.581,1.096,2.982,2.312,4.172,3.703c2.419,2.828,4.447,7.173,5.156,12.375c1.259,9.235,2.625,16.687,4.125,22.359
		s3.656,10.969,6.469,15.844H7.313z"/>
</g>
<g>
</g>
<g>
</g>
<g>
</g>
<g>
</g>
<g>
</g>
<g>
</g>
<g>
</g>
<g>
</g>
<g>
</g>
<g>
</g>
<g>
</g>
<g>
</g>
<g>
</g>
<g>
</g>
<g>
</g>
</svg>
